<?xml version="1.0"?>
<svg version="1.1" xmlns="http://www.w3.org/2000/svg" width="400px" height="100px" style="border:2px solid black"><path fill="#0d4269" d="M31.1,86l0-5.1l4.5-1.8l0-28.2l-4.5-1.8l0-5.1l13.8-0.3l4.56,0c9.84,0,15.6,4.08,15.6,12.24c0,5.64-2.7,9.3-6.78,11.34c0.66,0.78,1.56,1.92,2.52,3.9l4.02,8.22l4.08,1.5l0,5.1l-11.1,0l-5.04-11.1c-2.04-4.56-2.58-5.52-5.76-5.52l-2.1,0l0,9.72l4.32,1.8l0,5.1l-18.12,0z M44.9,63.08l3.42,0c4.74,0,7.5-2.28,7.5-6.3c0-3.42-2.28-5.88-6-5.88l-4.92,0l0,12.18z M105.0506,71.78l-19.92,0c0.36,4.8,3.12,7.62,7.26,7.62c4.98,0,10.08-2.82,10.08-2.82l2.58,4.98s-6,5.04-13.68,5.04c-10.32,0-15.6-6-15.6-16.2c0-10.5,5.94-17.4,16.02-17.4c8.94,0,13.62,5.52,13.62,14.1c0,2.28-0.36,4.5-0.36,4.68z M85.2506,66.2l10.86,0c0-3.42-1.44-6-4.92-6c-3.36,0-5.46,2.46-5.94,6z M126.6812,39.5l0,17.58c1.74-1.44,5.64-4.08,10.08-4.08c6.12,0,9.42,4.08,9.42,10.8l0,15.9l4.2,1.5l0,4.8l-16.32,0l0-4.8l3.12-1.44l0-14.52c0-3-1.2-4.8-3.96-4.8c-3.36,0-6.54,3.18-6.54,3.18l0,16.08l3.18,1.5l0,4.8l-16.98,0l0-4.8l4.8-1.5l0-33.72l-4.8-1.2l0-4.8z M187.4318,71.78l-19.92,0c0.36,4.8,3.12,7.62,7.26,7.62c4.98,0,10.08-2.82,10.08-2.82l2.58,4.98s-6,5.04-13.68,5.04c-10.32,0-15.6-6-15.6-16.2c0-10.5,5.94-17.4,16.02-17.4c8.94,0,13.62,5.52,13.62,14.1c0,2.28-0.36,4.5-0.36,4.68z M167.6318,66.2l10.86,0c0-3.42-1.44-6-4.92-6c-3.36,0-5.46,2.46-5.94,6z M216.6224,86l-1.08-3.9s-4.62,4.5-9.72,4.5c-5.82,0-9.36-3.42-9.36-9.42c0-7.08,5.34-9.9,14.46-9.9l4.2,0l0-3.3c0-3.06-1.62-4.38-4.62-4.38c-3.06,0-5.28,0.9-5.28,0.9l-0.9,3.78l-5.4,0l-0.42-8.88s7.26-2.4,13.02-2.4c9.12,0,12.6,3.18,12.6,11.88l0,14.82l4.5,1.08l0,4.8z M215.1224,72.38l-3.42,0c-4.68,0-6.54,1.2-6.54,3.9c0,2.28,1.26,3.6,3.54,3.6c3.18,0,6.42-3.48,6.42-3.48l0-4.02z M248.993,53.6l0.54,4.14s4.32-4.74,8.34-4.74c3.3,0,5.58,1.08,5.58,1.08l-0.48,11.52l-5.4,0l-0.9-5.1c-3.48,0-6.48,3.36-6.48,3.36l0,15.84l6,1.5l0,4.8l-19.8,0l0-4.8l4.8-1.5l0-19.5l-4.8-1.5l0-4.8z M275.6036,75.5l0.48,3.9s2.1,0.6,5.04,0.6c3.3,0,4.92-1.02,4.92-2.94c0-4.92-16.02-3.12-16.02-13.8c0-7.5,6-10.26,12.36-10.26c5.4,0,11.16,1.8,11.16,1.8l-0.24,9l-5.1,0l-0.9-3.6s-1.74-0.6-4.14-0.6c-2.58,0-4.14,1.08-4.14,3.06c0,4.86,16.02,2.76,16.02,13.14c0,6.9-5.58,10.8-13.8,10.8c-5.7,0-11.04-1.32-11.04-1.32l0-9.78l5.4,0z M323.8742,86l-1.08-3.9s-4.62,4.5-9.72,4.5c-5.82,0-9.36-3.42-9.36-9.42c0-7.08,5.34-9.9,14.46-9.9l4.2,0l0-3.3c0-3.06-1.62-4.38-4.62-4.38c-3.06,0-5.28,0.9-5.28,0.9l-0.9,3.78l-5.4,0l-0.42-8.88s7.26-2.4,13.02-2.4c9.12,0,12.6,3.18,12.6,11.88l0,14.82l4.5,1.08l0,4.8z M322.3742,72.38l-3.42,0c-4.68,0-6.54,1.2-6.54,3.9c0,2.28,1.26,3.6,3.54,3.6c3.18,0,6.42-3.48,6.42-3.48l0-4.02z M356.6048,79.7l5.4,1.5l0,4.8l-19.26,0l0-4.8l4.8-1.5l0-33.72l-4.8-1.2l0-4.8l13.86-0.48l0,40.2z"/><path fill="#" d="M339.08,54.192c0,0.08-0.04,0.128-0.144,0.128l-0.712,0c-0.168,0-0.224-0.064-0.272-0.192l-0.416-1.176l-2.024,0l-0.416,1.2c-0.032,0.104-0.088,0.168-0.216,0.168l-0.712,0c-0.08,0-0.112-0.04-0.112-0.104c0-0.024,0-0.056,0.016-0.088l1.952-5.184c0.04-0.096,0.096-0.16,0.216-0.16l0.64,0c0.12,0,0.192,0.056,0.224,0.144l1.96,5.16c0.016,0.04,0.016,0.072,0.016,0.104z M337.264,52.176l-0.568-1.688c-0.072-0.224-0.12-0.392-0.16-0.52l-0.016,0c-0.04,0.136-0.088,0.304-0.168,0.528l-0.568,1.68l1.48,0z M342.356,49.288c0,0.128-0.056,0.168-0.168,0.168l-0.456,0l0,4.192l0.432,0c0.112,0,0.168,0.072,0.168,0.168l0,0.344c0,0.096-0.04,0.16-0.144,0.16l-1.904,0c-0.104,0-0.16-0.064-0.16-0.152l0-0.36c0-0.112,0.048-0.16,0.16-0.16l0.424,0l0-4.192l-0.464,0c-0.112,0-0.16-0.056-0.16-0.16l0-0.352c0-0.088,0.048-0.16,0.144-0.16l1.96,0c0.112,0,0.168,0.072,0.168,0.152l0,0.352z"/></svg>
